<?xml version="1.0" encoding="utf-8"?>
<!-- Generator: Adobe Illustrator 14.0.0, SVG Export Plug-In . SVG Version: 6.00 Build 43363)  -->
<!DOCTYPE svg PUBLIC "-//W3C//DTD SVG 1.1//EN" "http://www.w3.org/Graphics/SVG/1.1/DTD/svg11.dtd">
<svg version="1.1" id="Github" xmlns="http://www.w3.org/2000/svg" xmlns:xlink="http://www.w3.org/1999/xlink" x="0px" y="0px"
	 width="1000px" height="1000px" viewBox="0 0 1000 1000" enable-background="new 0 0 1000 1000" xml:space="preserve">
<path fill="#555555" d="M659,565.45c-35.9,0-65,40.35-65,89.95c0,49.699,29.1,90.05,65,90.05s65-40.351,65-90.05
	C723.95,605.8,694.9,565.45,659,565.45z M885.3,331.3c7.45-18.25,7.75-121.95-31.75-221.3c0,0-90.55,9.95-227.55,104
	c-28.75-8-77.4-11.9-125.95-11.9c-48.649,0-97.25,3.9-126,11.9C237,119.95,146.45,110,146.45,110
	c-39.45,99.35-39.05,203.05-31.7,221.3C68.35,381.7,40,442.25,40,524.85C40,884.15,338.15,889.9,413.35,889.9
	c17.101,0,50.9,0.1,86.7,0.1c35.75,0,69.601-0.1,86.601-0.1c75.3,0,373.35-5.75,373.35-365.051C960,442.25,931.7,381.7,885.3,331.3z
	 M501.4,845.75H498.6c-188.55,0-335.45-22.45-335.45-205.75c0-43.95,15.5-84.65,52.35-118.45C276.85,465.2,380.75,495,498.6,495
	c0.5,0,1,0,1.45,0c0.5,0,0.9,0,1.351,0c117.85,0,221.8-29.8,283.199,26.55c36.75,33.8,52.25,74.5,52.25,118.45
	C836.85,823.3,690,845.75,501.4,845.75z M341.05,565.45c-35.9,0-65,40.35-65,89.95c0,49.699,29.1,90.05,65,90.05
	c35.95,0,65.05-40.351,65.05-90.05C406.1,605.8,377,565.45,341.05,565.45z"/>
</svg>
