<?xml version="1.0" encoding="utf-8"?>
<!-- Generator: Adobe Illustrator 14.0.0, SVG Export Plug-In . SVG Version: 6.00 Build 43363)  -->
<!DOCTYPE svg PUBLIC "-//W3C//DTD SVG 1.1//EN" "http://www.w3.org/Graphics/SVG/1.1/DTD/svg11.dtd">
<svg version="1.1" id="Instagram" xmlns="http://www.w3.org/2000/svg" xmlns:xlink="http://www.w3.org/1999/xlink" x="0px" y="0px"
	 width="1000px" height="1000px" viewBox="0 0 1000 1000" enable-background="new 0 0 1000 1000" xml:space="preserve">
<path fill="#555555" d="M850,50H150C95,50,50,95,50,150v700c0,55.05,45,100,100,100h700c55,0,100-44.95,100-100V150
	C950,95,905,50,850,50z M499.2,776.15C652.15,776.15,776.1,652.1,776.1,499.2c0-16.9-2.149-33.2-5.149-49.2H850v360.8
	c0,19.101-15.5,34.5-34.65,34.5h-630.7C165.5,845.3,150,829.9,150,810.8V450h77.45c-3.05,16-5.2,32.3-5.2,49.2
	C222.25,652.15,346.3,776.15,499.2,776.15z M326.15,499.2c0-95.601,77.5-173.05,173.1-173.05c95.55,0,173.1,77.45,173.1,173.05
	c0,95.6-77.55,173.1-173.1,173.1C403.6,672.3,326.15,594.8,326.15,499.2z M815.35,300H734.6c-19.1,0-34.6-15.6-34.6-34.6v-80.85
	c0-19.1,15.5-34.55,34.55-34.55h80.75c19.2,0,34.7,15.45,34.7,34.55v80.8C850,284.4,834.5,300,815.35,300z"/>
</svg>
